<svg width="607" height="95" viewBox="0 0 607 95" fill="none" xmlns="http://www.w3.org/2000/svg">
<path d="M29.464 93L0.664 2.24799H23.32L44.056 72.136H34.2L54.68 2.24799H72.984L93.464 72.136H83.736L104.472 2.24799H127L98.072 93H79.64L59.16 23.24H68.376L48.024 93H29.464ZM177.599 94.664C170.602 94.664 164.159 93.4693 158.271 91.08C152.383 88.6907 147.22 85.3627 142.783 81.096C138.431 76.8293 135.018 71.8373 132.543 66.12C130.068 60.3173 128.831 54.088 128.831 47.432C128.831 40.776 130.026 34.632 132.415 29C134.89 23.2827 138.303 18.2907 142.655 14.024C147.007 9.75733 152.127 6.472 158.015 4.168C163.903 1.77866 170.346 0.583992 177.343 0.583992C184.34 0.583992 190.783 1.77866 196.671 4.168C202.559 6.472 207.679 9.75733 212.031 14.024C216.383 18.2907 219.754 23.2827 222.143 29C224.618 34.7173 225.855 40.904 225.855 47.56C225.855 54.216 224.618 60.4027 222.143 66.12C219.754 71.8373 216.383 76.872 212.031 81.224C207.679 85.4907 202.559 88.8187 196.671 91.208C190.868 93.512 184.511 94.664 177.599 94.664ZM177.343 74.184C182.463 74.184 186.9 73.0747 190.655 70.856C194.41 68.6373 197.311 65.5227 199.359 61.512C201.407 57.5013 202.431 52.808 202.431 47.432C202.431 43.5067 201.834 39.9227 200.639 36.68C199.53 33.4373 197.866 30.664 195.647 28.36C193.428 25.9707 190.783 24.136 187.711 22.856C184.639 21.576 181.183 20.936 177.343 20.936C172.223 20.936 167.786 22.0453 164.031 24.264C160.276 26.3973 157.375 29.4693 155.327 33.48C153.279 37.4907 152.255 42.1413 152.255 47.432C152.255 51.528 152.81 55.24 153.919 58.568C155.114 61.8107 156.82 64.6267 159.039 67.016C161.258 69.32 163.903 71.112 166.975 72.392C170.047 73.5867 173.503 74.184 177.343 74.184ZM255.49 56.264V39.88H272.77C276.525 39.88 279.383 38.984 281.346 37.192C283.394 35.3147 284.418 32.7973 284.418 29.64C284.418 26.568 283.394 24.0933 281.346 22.216C279.383 20.2533 276.525 19.272 272.77 19.272H255.49V2.24799H275.97C282.114 2.24799 287.49 3.39999 292.098 5.70399C296.791 8.008 300.461 11.1653 303.106 15.176C305.751 19.1867 307.074 23.88 307.074 29.256C307.074 34.632 305.709 39.368 302.978 43.464C300.333 47.4747 296.621 50.632 291.842 52.936C287.063 55.1547 281.474 56.264 275.074 56.264H255.49ZM237.314 93V2.24799H260.226V93H237.314ZM286.466 93L260.098 54.088L280.706 49.096L312.962 93H286.466ZM375.479 93L341.175 45.64L374.071 2.24799H401.975L364.471 49.352V41.288L403.383 93H375.479ZM320.439 93V2.24799H343.351V93H320.439ZM410.439 93V2.24799H433.351V93H410.439ZM449.439 93V2.24799H472.351V93H449.439ZM467.615 59.08V39.752H512.543V59.08H467.615ZM467.615 21.576V2.24799H514.591V21.576H467.615ZM554.215 60.488L519.527 2.24799H545.767L572.263 49.48H553.831L580.327 2.24799H606.055L571.111 60.488H554.215ZM551.527 93V51.144H574.439V93H551.527Z" fill="white"/>
</svg>
